<svg width="360" height="730" viewBox="0 0 360 730" fill="none" xmlns="http://www.w3.org/2000/svg">
<path fill-rule="evenodd" clip-rule="evenodd" d="M64.9208 1H277.59H282.349H295.079C328.885 1 356.289 28.4046 356.289 62.2098L356.289 77.4724V82.2311L356.289 231.536H359.164C359.627 231.536 360 231.909 360 232.372V233.087V317.299V318.015C360 318.478 359.627 318.851 359.164 318.851H356.289L356.289 647.769V652.528L356.289 667.79C356.289 701.595 328.885 729 295.079 729H82.4098H77.6511H64.9208C31.1155 729 3.71094 701.595 3.71094 667.79V652.528V647.769V319.702H0.835767C0.372752 319.702 0 319.33 0 318.867V318.151V265.476V264.761C0 264.298 0.372752 263.925 0.835767 263.925H3.71094V249.121H0.835767C0.372752 249.121 0 248.748 0 248.285V247.57V194.895V194.18C0 193.717 0.372752 193.344 0.835767 193.344H3.71094V168.905H0.835768C0.372752 168.905 0 168.533 0 168.07V167.354V142.485V141.77C0 141.307 0.372752 140.934 0.835768 140.934H3.71094V82.2311V77.4724V62.2098C3.71094 28.4046 31.1155 1 64.9208 1ZM297.683 16.3857H62.3176C38.3408 16.3857 18.9038 35.8228 18.9038 59.7996V670.2C18.9038 694.177 38.3408 713.614 62.3176 713.614H297.683C321.66 713.614 341.097 694.177 341.097 670.2V59.7996C341.097 35.8228 321.66 16.3857 297.683 16.3857ZM216.487 25H144.307C135.853 25 129 31.8532 129 40.307C129 48.7608 135.853 55.614 144.307 55.614H216.487C224.941 55.614 231.794 48.7608 231.794 40.307C231.794 31.8532 224.941 25 216.487 25Z" fill="url(#paint0_linear_111_1657)"/>
<defs>
<linearGradient id="paint0_linear_111_1657" x1="148.847" y1="5.28345" x2="148.847" y2="7.92212" gradientUnits="userSpaceOnUse">
<stop/>
<stop offset="1" stop-color="#212121"/>
</linearGradient>
</defs>
</svg>
